<?xml version="1.0" encoding="UTF-8"?>
<!DOCTYPE svg PUBLIC "-//W3C//DTD SVG 1.1//EN" "http://www.w3.org/Graphics/SVG/1.1/DTD/svg11.dtd">
<svg xmlns="http://www.w3.org/2000/svg" version="1.1" width="456px" height="470px" style="shape-rendering:geometricPrecision; text-rendering:geometricPrecision; image-rendering:optimizeQuality; fill-rule:evenodd; clip-rule:evenodd" xmlns:xlink="http://www.w3.org/1999/xlink">
<g><path style="opacity:1" fill="#fefefe" d="M -0.5,-0.5 C 151.5,-0.5 303.5,-0.5 455.5,-0.5C 455.5,156.167 455.5,312.833 455.5,469.5C 303.5,469.5 151.5,469.5 -0.5,469.5C -0.5,312.833 -0.5,156.167 -0.5,-0.5 Z"/></g>
<g><path style="opacity:1" fill="#bbd4ed" d="M 301.5,40.5 C 250.791,40.1758 200.125,40.5092 149.5,41.5C 174.491,40.1669 199.824,39.5002 225.5,39.5C 251.002,39.5 276.336,39.8334 301.5,40.5 Z"/></g>
<g><path style="opacity:1" fill="#043a78" d="M 301.5,40.5 C 320.393,43.7268 331.727,54.7268 335.5,73.5C 335.813,119.857 335.48,166.19 334.5,212.5C 328.885,228.117 317.885,237.117 301.5,239.5C 246.997,239.832 192.664,239.499 138.5,238.5C 173.936,205.61 209.602,172.943 245.5,140.5C 246.495,151.321 246.828,162.321 246.5,173.5C 231.906,187.089 217.239,200.756 202.5,214.5C 201.624,214.369 200.957,214.702 200.5,215.5C 232.997,216.83 265.331,216.83 297.5,215.5C 302.022,214.411 305.689,212.078 308.5,208.5C 309.833,186.343 310.5,163.843 310.5,141C 310.5,118.157 309.833,95.6566 308.5,73.5C 306.761,70.5894 304.428,68.0894 301.5,66C 251.5,65.3333 201.5,65.3333 151.5,66C 148.587,68.0758 146.253,70.5758 144.5,73.5C 143.17,103.669 143.17,134.003 144.5,164.5C 145.107,164.376 145.44,164.043 145.5,163.5C 159.839,149.494 174.506,135.828 189.5,122.5C 202.212,121.854 214.545,122.52 226.5,124.5C 190.582,155.746 155.249,187.746 120.5,220.5C 118.505,171.845 117.838,122.845 118.5,73.5C 118.5,71.8333 118.5,70.1667 118.5,68.5C 123.328,53.2429 133.661,44.2429 149.5,41.5C 200.125,40.5092 250.791,40.1758 301.5,40.5 Z"/></g>
<g><path style="opacity:1" fill="#87a7c8" d="M 335.5,73.5 C 336.665,118.998 336.832,164.665 336,210.5C 335.722,211.416 335.222,212.082 334.5,212.5C 335.48,166.19 335.813,119.857 335.5,73.5 Z"/></g>
<g><path style="opacity:1" fill="#1a497a" d="M 118.5,73.5 C 117.838,122.845 118.505,171.845 120.5,220.5C 119.833,221.167 119.167,221.833 118.5,222.5C 117.167,172.833 117.167,123.167 118.5,73.5 Z"/></g>
<g><path style="opacity:1" fill="#6788ad" d="M 118.5,68.5 C 118.5,70.1667 118.5,71.8333 118.5,73.5C 117.167,123.167 117.167,172.833 118.5,222.5C 118.44,223.043 118.107,223.376 117.5,223.5C 116.333,172.837 116.167,122.17 117,71.5C 117.232,70.2625 117.732,69.2625 118.5,68.5 Z"/></g>
<g><path style="opacity:1" fill="#849db8" d="M 144.5,73.5 C 144.169,103.671 144.502,133.671 145.5,163.5C 145.44,164.043 145.107,164.376 144.5,164.5C 143.17,134.003 143.17,103.669 144.5,73.5 Z"/></g>
<g><path style="opacity:1" fill="#113d70" d="M 308.5,73.5 C 309.833,95.6566 310.5,118.157 310.5,141C 310.5,163.843 309.833,186.343 308.5,208.5C 309.824,163.458 309.824,118.458 308.5,73.5 Z"/></g>
<g><path style="opacity:1" fill="#a7b9d1" d="M 189.5,122.5 C 201.989,121.505 214.656,121.171 227.5,121.5C 227.737,122.791 227.404,123.791 226.5,124.5C 214.545,122.52 202.212,121.854 189.5,122.5 Z"/></g>
<g><path style="opacity:1" fill="#bed3ec" d="M 245.5,140.5 C 245.56,139.957 245.893,139.624 246.5,139.5C 247.824,150.993 247.824,162.326 246.5,173.5C 246.828,162.321 246.495,151.321 245.5,140.5 Z"/></g>
<g><path style="opacity:1" fill="#446a97" d="M 202.5,214.5 C 233.996,215.498 265.662,215.832 297.5,215.5C 265.331,216.83 232.997,216.83 200.5,215.5C 200.957,214.702 201.624,214.369 202.5,214.5 Z"/></g>
<g><path style="opacity:1" fill="#547aa0" d="M 138.5,238.5 C 192.664,239.499 246.997,239.832 301.5,239.5C 246.668,240.665 191.668,240.832 136.5,240C 137.044,239.283 137.711,238.783 138.5,238.5 Z"/></g>
<g><path style="opacity:1" fill="#708cae" d="M 140.5,263.5 C 135.167,262.167 129.833,262.167 124.5,263.5C 126.807,261.953 129.473,261.287 132.5,261.5C 135.527,261.287 138.193,261.953 140.5,263.5 Z"/></g>
<g><path style="opacity:1" fill="#58769c" d="M 299.5,269.5 C 299.5,267.5 299.5,265.5 299.5,263.5C 296.833,263.5 294.167,263.5 291.5,263.5C 291.5,265.5 291.5,267.5 291.5,269.5C 290.532,267.393 290.198,265.059 290.5,262.5C 293.833,262.5 297.167,262.5 300.5,262.5C 300.802,265.059 300.468,267.393 299.5,269.5 Z"/></g>
<g><path style="opacity:1" fill="#013877" d="M 279.5,263.5 C 279.5,277.833 279.5,292.167 279.5,306.5C 276.5,306.5 273.5,306.5 270.5,306.5C 270.5,292.167 270.5,277.833 270.5,263.5C 273.5,263.5 276.5,263.5 279.5,263.5 Z"/></g>
<g><path style="opacity:1" fill="#0a3b76" d="M 299.5,269.5 C 296.833,269.5 294.167,269.5 291.5,269.5C 291.5,267.5 291.5,265.5 291.5,263.5C 294.167,263.5 296.833,263.5 299.5,263.5C 299.5,265.5 299.5,267.5 299.5,269.5 Z"/></g>
<g><path style="opacity:1" fill="#7a96b4" d="M 279.5,263.5 C 276.5,263.5 273.5,263.5 270.5,263.5C 270.5,277.833 270.5,292.167 270.5,306.5C 273.5,306.5 276.5,306.5 279.5,306.5C 276.375,307.479 273.042,307.813 269.5,307.5C 269.5,292.5 269.5,277.5 269.5,262.5C 273.042,262.187 276.375,262.521 279.5,263.5 Z"/></g>
<g><path style="opacity:1" fill="#0a3b78" d="M 140.5,263.5 C 145.148,264.651 147.981,267.651 149,272.5C 149.667,280.5 149.667,288.5 149,296.5C 146.387,304.464 140.887,308.131 132.5,307.5C 125.398,308.561 120.231,305.895 117,299.5C 116.333,289.833 116.333,280.167 117,270.5C 118.652,267.134 121.152,264.801 124.5,263.5C 129.833,262.167 135.167,262.167 140.5,263.5 Z"/></g>
<g><path style="opacity:1" fill="#f8fbfc" d="M 128.5,269.5 C 131.187,269.336 133.854,269.503 136.5,270C 137.126,270.75 137.626,271.584 138,272.5C 138.667,280.5 138.667,288.5 138,296.5C 135.563,302.112 132.23,302.778 128,298.5C 125.872,288.749 126.039,279.082 128.5,269.5 Z"/></g>
<g><path style="opacity:1" fill="#5c7aa0" d="M 291.5,275.5 C 291.5,285.833 291.5,296.167 291.5,306.5C 294.167,306.5 296.833,306.5 299.5,306.5C 299.5,296.167 299.5,285.833 299.5,275.5C 300.494,285.987 300.828,296.654 300.5,307.5C 297.167,307.5 293.833,307.5 290.5,307.5C 290.172,296.654 290.506,285.987 291.5,275.5 Z"/></g>
<g><path style="opacity:1" fill="#033a77" d="M 291.5,275.5 C 294.167,275.5 296.833,275.5 299.5,275.5C 299.5,285.833 299.5,296.167 299.5,306.5C 296.833,306.5 294.167,306.5 291.5,306.5C 291.5,296.167 291.5,285.833 291.5,275.5 Z"/></g>
<g><path style="opacity:1" fill="#728fb0" d="M 210.5,275.5 C 210.5,277.167 210.5,278.833 210.5,280.5C 211.791,280.263 212.791,280.596 213.5,281.5C 212.167,281.5 210.833,281.5 209.5,281.5C 209.205,279.265 209.539,277.265 210.5,275.5 Z"/></g>
<g><path style="opacity:1" fill="#113e79" d="M 181.5,281.5 C 181.5,282.5 181.5,283.5 181.5,284.5C 178.167,284.5 174.833,284.5 171.5,284.5C 171.5,283.167 171.5,281.833 171.5,280.5C 169.5,280.5 167.5,280.5 165.5,280.5C 165.215,282.288 165.548,283.955 166.5,285.5C 172.144,287.898 177.311,290.898 182,294.5C 183.368,300.474 181.202,304.64 175.5,307C 170.833,307.667 166.167,307.667 161.5,307C 157.547,304.593 155.547,301.093 155.5,296.5C 158.833,296.5 162.167,296.5 165.5,296.5C 164.679,302.158 166.846,303.825 172,301.5C 172.798,299.741 172.631,298.074 171.5,296.5C 166.815,294.536 162.315,292.202 158,289.5C 153.898,283.599 155.065,279.099 161.5,276C 166.833,275.333 172.167,275.333 177.5,276C 179.052,277.712 180.385,279.545 181.5,281.5 Z"/></g>
<g><path style="opacity:1" fill="#133f7a" d="M 319.5,284.5 C 315.988,285.055 312.988,284.388 310.5,282.5C 310.423,279.491 311.756,277.324 314.5,276C 320.612,275.091 326.612,275.424 332.5,277C 334.041,278.579 335.208,280.413 336,282.5C 336.5,290.827 336.666,299.16 336.5,307.5C 333.5,307.5 330.5,307.5 327.5,307.5C 327.719,306.325 327.386,305.325 326.5,304.5C 312.982,311.003 307.649,306.836 310.5,292C 311.896,289.604 313.896,287.937 316.5,287C 319.817,286.502 323.15,286.335 326.5,286.5C 326.5,284.5 326.5,282.5 326.5,280.5C 324.396,280.201 322.396,280.534 320.5,281.5C 319.873,282.417 319.539,283.417 319.5,284.5 Z"/></g>
<g><path style="opacity:1" fill="#063976" d="M 227.5,275.5 C 227.5,277.167 227.5,278.833 227.5,280.5C 226.167,280.5 224.833,280.5 223.5,280.5C 223.5,289.167 223.5,297.833 223.5,306.5C 220.5,306.5 217.5,306.5 214.5,306.5C 214.826,297.983 214.493,289.65 213.5,281.5C 212.791,280.596 211.791,280.263 210.5,280.5C 210.5,278.833 210.5,277.167 210.5,275.5C 211.833,275.5 213.167,275.5 214.5,275.5C 213.058,264.857 217.725,260.524 228.5,262.5C 228.5,264.167 228.5,265.833 228.5,267.5C 224.006,268.159 222.339,270.825 223.5,275.5C 224.833,275.5 226.167,275.5 227.5,275.5 Z"/></g>
<g><path style="opacity:1" fill="#859fbb" d="M 181.5,281.5 C 182.434,282.568 182.768,283.901 182.5,285.5C 178.629,285.815 174.962,285.482 171.5,284.5C 174.833,284.5 178.167,284.5 181.5,284.5C 181.5,283.5 181.5,282.5 181.5,281.5 Z"/></g>
<g><path style="opacity:1" fill="#7a95b3" d="M 244.5,281.5 C 244.461,282.583 244.127,283.583 243.5,284.5C 240.02,285.806 236.687,285.806 233.5,284.5C 236.687,285.806 240.02,285.806 243.5,284.5C 244.127,283.583 244.461,282.583 244.5,281.5 Z"/></g>
<g><path style="opacity:1" fill="#819cb8" d="M 310.5,282.5 C 312.988,284.388 315.988,285.055 319.5,284.5C 316.375,285.479 313.042,285.813 309.5,285.5C 309.263,284.209 309.596,283.209 310.5,282.5 Z"/></g>
<g><path style="opacity:1" fill="#385c88" d="M 190.5,275.5 C 189.791,276.404 188.791,276.737 187.5,276.5C 187.5,277.833 187.5,279.167 187.5,280.5C 188.833,280.5 190.167,280.5 191.5,280.5C 191.5,288.167 191.5,295.833 191.5,303.5C 190.508,296.352 190.175,289.019 190.5,281.5C 189.167,281.5 187.833,281.5 186.5,281.5C 186.5,279.5 186.5,277.5 186.5,275.5C 187.833,275.5 189.167,275.5 190.5,275.5 Z"/></g>
<g><path style="opacity:1" fill="#7694b8" d="M 213.5,281.5 C 214.493,289.65 214.826,297.983 214.5,306.5C 217.5,306.5 220.5,306.5 223.5,306.5C 223.5,306.833 223.5,307.167 223.5,307.5C 220.167,307.5 216.833,307.5 213.5,307.5C 213.5,298.833 213.5,290.167 213.5,281.5 Z"/></g>
<g><path style="opacity:1" fill="#bfd5eb" d="M 227.5,275.5 C 228.468,277.607 228.802,279.941 228.5,282.5C 227.167,282.5 225.833,282.5 224.5,282.5C 224.826,291.017 224.493,299.35 223.5,307.5C 223.5,307.167 223.5,306.833 223.5,306.5C 223.5,297.833 223.5,289.167 223.5,280.5C 224.833,280.5 226.167,280.5 227.5,280.5C 227.5,278.833 227.5,277.167 227.5,275.5 Z"/></g>
<g><path style="opacity:1" fill="#6580a3" d="M 259.5,282.5 C 260.493,290.65 260.826,298.983 260.5,307.5C 257.287,307.81 254.287,307.477 251.5,306.5C 254.167,306.5 256.833,306.5 259.5,306.5C 259.5,298.5 259.5,290.5 259.5,282.5 Z"/></g>
<g><path style="opacity:1" fill="#e1eaf2" d="M 320.5,291.5 C 322.5,291.5 324.5,291.5 326.5,291.5C 326.664,294.187 326.497,296.854 326,299.5C 322.207,303.54 319.707,302.707 318.5,297C 318.954,295.061 319.621,293.228 320.5,291.5 Z"/></g>
<g><path style="opacity:1" fill="#063a77" d="M 191.5,303.5 C 191.5,295.833 191.5,288.167 191.5,280.5C 190.167,280.5 188.833,280.5 187.5,280.5C 187.5,279.167 187.5,277.833 187.5,276.5C 188.791,276.737 189.791,276.404 190.5,275.5C 191.297,270.058 194.63,267.391 200.5,267.5C 200.5,270.167 200.5,272.833 200.5,275.5C 201.833,275.5 203.167,275.5 204.5,275.5C 204.5,277.167 204.5,278.833 204.5,280.5C 203.167,280.5 201.833,280.5 200.5,280.5C 200.5,287.833 200.5,295.167 200.5,302.5C 201.833,302.5 203.167,302.5 204.5,302.5C 204.5,304.167 204.5,305.833 204.5,307.5C 201.15,307.665 197.817,307.498 194.5,307C 192.944,306.28 191.944,305.113 191.5,303.5 Z"/></g>
<g><path style="opacity:1" fill="#093a76" d="M 259.5,282.5 C 259.5,290.5 259.5,298.5 259.5,306.5C 256.833,306.5 254.167,306.5 251.5,306.5C 251.649,305.448 251.483,304.448 251,303.5C 247.257,307.259 242.757,308.426 237.5,307C 236.354,306.355 235.354,305.522 234.5,304.5C 233.339,300.205 233.172,295.871 234,291.5C 238.735,287.535 244.235,285.868 250.5,286.5C 250.5,284.5 250.5,282.5 250.5,280.5C 248.265,280.205 246.265,280.539 244.5,281.5C 241.416,284.081 237.75,285.081 233.5,284.5C 234.316,277.214 238.483,274.214 246,275.5C 252.796,273.857 257.296,276.191 259.5,282.5 Z"/></g>
<g><path style="opacity:1" fill="#e7eff6" d="M 246.5,291.5 C 247.833,291.5 249.167,291.5 250.5,291.5C 250.664,294.187 250.497,296.854 250,299.5C 248.776,302.473 246.776,303.14 244,301.5C 241.489,297.2 242.322,293.867 246.5,291.5 Z"/></g>
<g><path style="opacity:1" fill="#0b3e7c" d="M 197.5,379.5 C 199.167,379.5 200.833,379.5 202.5,379.5C 202.5,388.167 202.5,396.833 202.5,405.5C 200.549,405.773 199.049,405.107 198,403.5C 192.879,407.875 188.545,407.209 185,401.5C 183.882,396.564 184.715,392.064 187.5,388C 190.791,385.926 193.957,386.092 197,388.5C 197.498,385.518 197.665,382.518 197.5,379.5 Z"/></g>
<g><path style="opacity:1" fill="#194580" d="M 328.5,379.5 C 332.5,378.833 334.167,380.5 333.5,384.5C 331.5,384.5 329.5,384.5 327.5,384.5C 327.629,382.784 327.962,381.117 328.5,379.5 Z"/></g>
<g><path style="opacity:1" fill="#15417e" d="M 73.5,381.5 C 78.5111,381.334 83.5111,381.501 88.5,382C 90.9096,382.758 91.9096,384.425 91.5,387C 91.2517,388.716 90.585,390.216 89.5,391.5C 94.285,395.36 94.6183,399.526 90.5,404C 85.0052,405.707 79.5052,405.873 74,404.5C 73.5003,396.841 73.3336,389.174 73.5,381.5 Z"/></g>
<g><path style="opacity:1" fill="#0d3f7c" d="M 218.5,381.5 C 223.511,381.334 228.511,381.501 233.5,382C 237.386,385.202 237.386,388.535 233.5,392C 234.5,392.5 235.5,393 236.5,393.5C 237.787,396.709 237.787,399.875 236.5,403C 230.813,405.571 224.979,406.071 219,404.5C 218.5,396.841 218.334,389.174 218.5,381.5 Z"/></g>
<g><path style="opacity:1" fill="#13417e" d="M 277.5,381.5 C 279.5,381.5 281.5,381.5 283.5,381.5C 283.5,383.5 283.5,385.5 283.5,387.5C 284.833,387.5 286.167,387.5 287.5,387.5C 287.5,388.5 287.5,389.5 287.5,390.5C 286.167,390.5 284.833,390.5 283.5,390.5C 283.5,394.167 283.5,397.833 283.5,401.5C 284.833,401.5 286.167,401.5 287.5,401.5C 287.252,405.968 284.918,407.468 280.5,406C 279.667,405.167 278.833,404.333 278,403.5C 277.501,399.179 277.334,394.846 277.5,390.5C 274.833,390.5 272.167,390.5 269.5,390.5C 269.5,394.167 269.5,397.833 269.5,401.5C 271.167,401.5 272.833,401.5 274.5,401.5C 273.156,406.848 270.156,407.848 265.5,404.5C 264.507,399.88 264.173,395.214 264.5,390.5C 263.167,390.5 261.833,390.5 260.5,390.5C 260.5,389.5 260.5,388.5 260.5,387.5C 261.833,387.5 263.167,387.5 264.5,387.5C 264.5,385.833 264.5,384.167 264.5,382.5C 266.167,382.5 267.833,382.5 269.5,382.5C 269.5,384.167 269.5,385.833 269.5,387.5C 272.167,387.5 274.833,387.5 277.5,387.5C 277.5,385.5 277.5,383.5 277.5,381.5 Z"/></g>
<g><path style="opacity:1" fill="#fafbfc" d="M 79.5,384.5 C 82.3795,384.033 84.7129,384.866 86.5,387C 85.2139,389.946 82.8806,391.112 79.5,390.5C 79.5,388.5 79.5,386.5 79.5,384.5 Z"/></g>
<g><path style="opacity:1" fill="#eaeef3" d="M 223.5,384.5 C 225.527,384.338 227.527,384.505 229.5,385C 232.003,386.549 232.003,388.216 229.5,390C 227.527,390.495 225.527,390.662 223.5,390.5C 223.5,388.5 223.5,386.5 223.5,384.5 Z"/></g>
<g><path style="opacity:1" fill="#0f3f7d" d="M 103.5,386.5 C 112.242,385.242 115.909,388.908 114.5,397.5C 110.167,397.5 105.833,397.5 101.5,397.5C 101.561,399.592 102.561,401.092 104.5,402C 107.849,402.388 111.183,402.221 114.5,401.5C 114.439,403.592 113.439,405.092 111.5,406C 98.8034,407.911 94.3034,402.744 98,390.5C 99.4998,388.531 101.333,387.198 103.5,386.5 Z"/></g>
<g><path style="opacity:1" fill="#16427f" d="M 144.5,386.5 C 155.74,385.575 159.907,390.575 157,401.5C 150.183,408.435 143.85,408.102 138,400.5C 136.462,393.891 138.629,389.224 144.5,386.5 Z"/></g>
<g><path style="opacity:1" fill="#194480" d="M 171.5,386.5 C 175.21,386.225 178.043,387.558 180,390.5C 180.499,395.489 180.666,400.489 180.5,405.5C 178.5,405.5 176.5,405.5 174.5,405.5C 174.666,401.154 174.499,396.821 174,392.5C 172.271,389.921 170.438,389.921 168.5,392.5C 167.508,396.783 167.174,401.116 167.5,405.5C 165.533,405.739 163.699,405.406 162,404.5C 161.501,398.843 161.334,393.176 161.5,387.5C 163.766,387.141 165.599,387.808 167,389.5C 168.409,388.219 169.909,387.219 171.5,386.5 Z"/></g>
<g><path style="opacity:1" fill="#11407d" d="M 246.5,386.5 C 250.179,386.363 253.679,387.029 257,388.5C 258.404,394.044 258.904,399.71 258.5,405.5C 256.549,405.773 255.049,405.107 254,403.5C 249.993,407.391 245.993,407.391 242,403.5C 241.218,400.743 241.718,398.243 243.5,396C 246.393,394.851 249.393,394.351 252.5,394.5C 252.5,393.167 252.5,391.833 252.5,390.5C 249.193,390.063 246.193,390.73 243.5,392.5C 241.86,389.147 242.86,387.147 246.5,386.5 Z"/></g>
<g><path style="opacity:1" fill="#11407d" d="M 295.5,386.5 C 304.586,384.934 308.919,388.601 308.5,397.5C 304.167,397.5 299.833,397.5 295.5,397.5C 295.297,399.39 295.963,400.89 297.5,402C 300.849,402.388 304.183,402.221 307.5,401.5C 307.439,404.05 306.106,405.55 303.5,406C 293.535,407.615 289.035,403.448 290,393.5C 290.967,390.379 292.8,388.046 295.5,386.5 Z"/></g>
<g><path style="opacity:1" fill="#13427f" d="M 320.5,386.5 C 321.833,386.5 323.167,386.5 324.5,386.5C 324.785,388.288 324.452,389.955 323.5,391.5C 321.837,390.125 320.503,390.458 319.5,392.5C 318.508,396.783 318.174,401.116 318.5,405.5C 316.5,405.5 314.5,405.5 312.5,405.5C 312.5,399.5 312.5,393.5 312.5,387.5C 314.467,387.261 316.301,387.594 318,388.5C 318.995,387.934 319.828,387.267 320.5,386.5 Z"/></g>
<g><path style="opacity:1" fill="#10407d" d="M 343.5,386.5 C 352.659,384.753 356.659,388.42 355.5,397.5C 351.5,397.5 347.5,397.5 343.5,397.5C 343.227,399.451 343.893,400.951 345.5,402C 348.849,402.388 352.183,402.221 355.5,401.5C 355.439,404.05 354.106,405.55 351.5,406C 340.842,407.596 336.342,403.096 338,392.5C 339.021,389.65 340.854,387.65 343.5,386.5 Z"/></g>
<g><path style="opacity:1" fill="#17437f" d="M 363.5,386.5 C 366.545,386.508 369.545,386.841 372.5,387.5C 372.762,388.978 372.429,390.311 371.5,391.5C 369.253,390.626 366.92,390.292 364.5,390.5C 364.5,391.5 364.5,392.5 364.5,393.5C 371.44,393.748 374.106,397.081 372.5,403.5C 368.447,406.768 364.28,407.101 360,404.5C 359.333,403.167 359.333,401.833 360,400.5C 362.301,401.867 364.801,402.534 367.5,402.5C 367.5,401.167 367.5,399.833 367.5,398.5C 361.705,398.061 359.205,395.061 360,389.5C 361.145,388.364 362.312,387.364 363.5,386.5 Z"/></g>
<g><path style="opacity:1" fill="#10407d" d="M 116.5,388.5 C 118.364,387.207 120.364,387.207 122.5,388.5C 123.938,392.18 125.438,395.847 127,399.5C 128.477,395.57 129.644,391.57 130.5,387.5C 132.5,387.5 134.5,387.5 136.5,387.5C 133.673,395.459 130.84,403.459 128,411.5C 125.936,412.591 123.769,412.758 121.5,412C 122.399,409.808 123.399,407.642 124.5,405.5C 121.819,399.765 119.152,394.099 116.5,388.5 Z"/></g>
<g><path style="opacity:1" fill="#204782" d="M 328.5,387.5 C 330.167,387.5 331.833,387.5 333.5,387.5C 333.666,393.176 333.499,398.843 333,404.5C 331.644,405.38 330.144,405.714 328.5,405.5C 328.5,399.5 328.5,393.5 328.5,387.5 Z"/></g>
<g><path style="opacity:1" fill="#f4f7f9" d="M 103.5,390.5 C 107.241,389.599 109.241,390.932 109.5,394.5C 106.753,394.813 104.086,394.48 101.5,393.5C 102.193,392.482 102.859,391.482 103.5,390.5 Z"/></g>
<g><path style="opacity:1" fill="#f8fafb" d="M 145.5,390.5 C 151.178,390.157 153.344,392.824 152,398.5C 150.216,402.779 147.55,403.446 144,400.5C 143.037,396.851 143.537,393.518 145.5,390.5 Z"/></g>
<g><path style="opacity:1" fill="#f1f4f7" d="M 192.5,390.5 C 194.17,390.751 195.67,391.418 197,392.5C 197.667,395.167 197.667,397.833 197,400.5C 194.959,401.423 192.792,401.756 190.5,401.5C 188.621,397.238 189.287,393.571 192.5,390.5 Z"/></g>
<g><path style="opacity:1" fill="#f1f4f7" d="M 296.5,390.5 C 299.596,389.907 301.929,390.907 303.5,393.5C 300.914,394.48 298.247,394.813 295.5,394.5C 295.433,393.041 295.766,391.708 296.5,390.5 Z"/></g>
<g><path style="opacity:1" fill="#f8f9fb" d="M 344.5,390.5 C 348.241,389.599 350.241,390.932 350.5,394.5C 348.167,394.5 345.833,394.5 343.5,394.5C 343.433,393.041 343.766,391.708 344.5,390.5 Z"/></g>
<g><path style="opacity:1" fill="#fbfcfd" d="M 79.5,394.5 C 81.5273,394.338 83.5273,394.505 85.5,395C 87.6983,396.67 88.0317,398.67 86.5,401C 84.1902,401.497 81.8568,401.663 79.5,401.5C 79.5,399.167 79.5,396.833 79.5,394.5 Z"/></g>
<g><path style="opacity:1" fill="#f0f3f7" d="M 223.5,394.5 C 225.527,394.338 227.527,394.505 229.5,395C 232.473,396.224 233.14,398.224 231.5,401C 228.854,401.497 226.187,401.664 223.5,401.5C 223.5,399.167 223.5,396.833 223.5,394.5 Z"/></g>
<g><path style="opacity:1" fill="#f6f8fa" d="M 248.5,397.5 C 249.833,397.5 251.167,397.5 252.5,397.5C 252.804,400.233 251.637,401.899 249,402.5C 245.928,401.119 245.761,399.452 248.5,397.5 Z"/></g>
</svg>
